<svg width="39" height="45" viewBox="0 0 39 45" fill="none" xmlns="http://www.w3.org/2000/svg">
<path d="M24.6315 10.0282H31.1527V30.6788C31.1527 32.1732 30.6093 33.4639 29.5224 34.5507C28.4355 35.6376 27.2128 36.1131 25.7184 36.1131H6.15466C4.66021 36.1131 3.36955 35.6376 2.28268 34.5507C1.19581 33.4639 0.7203 32.1732 0.7203 30.6788V10.0282H7.24153C7.24153 8.4658 7.58118 7.03928 8.39633 5.68069C9.14356 4.3221 10.1625 3.30316 11.5211 2.48801C12.8797 1.74078 14.3062 1.33321 15.9365 1.33321C17.4989 1.33321 18.9254 1.74078 20.284 2.48801C21.6426 3.30316 22.6615 4.3221 23.4767 5.68069C24.2239 7.03928 24.6315 8.4658 24.6315 10.0282ZM15.9365 3.50695C14.1024 3.50695 12.54 4.18625 11.3173 5.40898C10.0266 6.69964 9.41528 8.26202 9.41528 10.0282H22.4577C22.4577 8.26202 21.7784 6.69964 20.5557 5.40898C19.2651 4.18625 17.7027 3.50695 15.9365 3.50695ZM28.979 30.6788V12.2019H24.6315V15.4625C24.6315 15.8022 24.4956 16.0739 24.2918 16.2777C24.088 16.4815 23.8163 16.5494 23.5446 16.5494C23.205 16.5494 22.9332 16.4815 22.7295 16.2777C22.5257 16.0739 22.4577 15.8022 22.4577 15.4625V12.2019H9.41528V15.4625C9.41528 15.8022 9.27942 16.0739 9.07563 16.2777C8.87184 16.4815 8.60012 16.5494 8.3284 16.5494C7.98876 16.5494 7.71704 16.4815 7.51325 16.2777C7.30946 16.0739 7.24153 15.8022 7.24153 15.4625V12.2019H2.89404V30.6788C2.89404 31.6298 3.16576 32.377 3.84506 32.9884C4.45642 33.6677 5.20365 33.9394 6.15466 33.9394H25.7184C26.6014 33.9394 27.3487 33.6677 28.028 32.9884C28.6393 32.377 28.979 31.6298 28.979 30.6788Z" fill="#E5DFD9"/>
<ellipse cx="28.801" cy="34.0184" rx="9.96603" ry="10.1951" fill="#141414"/>
<path d="M33.8903 32.608C33.9469 32.608 33.9752 32.6363 34.0318 32.6929C34.0884 32.7495 34.1167 32.7778 34.1167 32.8345V33.7402C34.1167 33.7968 34.0884 33.8534 34.0318 33.91C33.9752 33.9666 33.9469 33.9666 33.8903 33.9666H29.3617V38.4952C29.3617 38.5519 29.3334 38.6085 29.2768 38.6651C29.2201 38.7217 29.1918 38.7217 29.1352 38.7217H28.2295C28.1729 38.7217 28.1163 38.7217 28.0597 38.6651C28.0031 38.6085 28.0031 38.5519 28.0031 38.4952V33.9666H23.4744C23.4178 33.9666 23.3612 33.9666 23.3046 33.91C23.248 33.8534 23.248 33.7968 23.248 33.7402V32.8345C23.248 32.7778 23.248 32.7495 23.3046 32.6929C23.3612 32.6363 23.4178 32.608 23.4744 32.608H28.0031V28.0794C28.0031 28.0228 28.0031 27.9945 28.0597 27.9379C28.1163 27.8813 28.1729 27.853 28.2295 27.853H29.1352C29.1918 27.853 29.2201 27.8813 29.2768 27.9379C29.3334 27.9945 29.3617 28.0228 29.3617 28.0794V32.608H33.8903Z" fill="#E5DFD9"/>
</svg>
